<svg width="100" height="25" viewBox="0 0 100 25" fill="none" xmlns="http://www.w3.org/2000/svg">
<path fill-rule="evenodd" clip-rule="evenodd" d="M21.7585 0.487672C21.7585 0.439863 21.7983 0.400024 21.8461 0.400024C21.8701 0.400024 21.886 0.407992 21.9099 0.423928C21.9258 0.439864 21.9338 0.463767 21.9338 0.487672V0.495638C21.9338 2.1291 23.2565 3.45978 24.882 3.45978C24.9298 3.45978 24.9697 3.49962 24.9697 3.54744C24.9697 3.59524 24.9298 3.63508 24.882 3.63508C23.2645 3.63508 21.9417 4.96575 21.9338 6.59125C21.9338 6.63906 21.894 6.6789 21.8461 6.6789C21.7983 6.6789 21.7585 6.63906 21.7585 6.59125C21.7585 4.95779 20.4358 3.62712 18.8103 3.62712C18.7625 3.62712 18.7227 3.58727 18.7227 3.53946C18.7227 3.49165 18.7625 3.45181 18.8103 3.45181C20.4358 3.45181 21.7585 2.12114 21.7585 0.487672ZM6.58765 2.57532H8.6753L14.763 18.4398H12.7788L11.3127 14.6311H3.95019L2.48407 18.4398H0.5L6.58765 2.57532ZM7.63147 5.02153L4.74701 12.5434H10.516L7.63147 5.02153ZM17.9743 2.58337H15.9424V18.4399H17.9743V2.58337ZM27.8226 11.4439V16.3682H35.7271V18.4399H25.7509V2.58337H35.1534V4.65508H27.8226V9.47577H34.3326V11.4439H27.8226ZM54.8021 6.72671C51.4873 6.72671 48.7941 9.3881 48.7702 12.6948V24.4H50.802V16.91C51.814 17.9777 53.2084 18.6789 54.7623 18.7824H54.8021C58.1328 18.7824 60.834 16.0813 60.834 12.7507C60.834 9.57928 58.3878 6.98169 55.2802 6.74265C55.2722 6.74265 55.2444 6.74066 55.2165 6.73867C55.1886 6.73668 55.1607 6.73468 55.1526 6.73468C55.0411 6.72671 54.9216 6.72671 54.8021 6.72671ZM58.7782 12.9259C58.7782 15.1171 57.0012 16.894 54.8101 16.894C52.6189 16.894 50.8419 15.1171 50.8419 12.9259V12.7666V12.6072C50.8419 10.416 52.6189 8.63907 54.8101 8.63907C57.0012 8.63907 58.7782 10.416 58.7782 12.6072V12.7666V12.9259ZM76.7862 7.14902C76.133 6.87013 75.432 6.73467 74.7148 6.72671H74.683C73.8861 6.73467 73.1053 6.88607 72.3802 7.19683C71.671 7.49962 71.0336 7.92192 70.4838 8.47175C69.934 9.01355 69.5037 9.65105 69.2009 10.3602C68.8902 11.0932 68.7308 11.8741 68.7228 12.6789V12.6869V12.7028C68.7228 13.5156 68.8902 14.3124 69.2009 15.0534C69.5037 15.7705 69.942 16.416 70.4917 16.9738C71.0415 17.5315 71.687 17.9697 72.4041 18.2805C73.1451 18.5992 73.934 18.7666 74.7467 18.7745H74.7706H74.7786H74.7946H74.8025H74.8104C75.7107 18.7666 76.5635 18.5594 77.3682 18.1769C78.125 17.8104 78.7783 17.3004 79.3288 16.655L77.8228 15.4518C77.4478 15.882 77.0098 16.2247 76.508 16.4717C75.9658 16.7346 75.3842 16.8781 74.7786 16.8781C74.3085 16.8781 73.8543 16.7904 73.416 16.639C72.9937 16.4877 72.6033 16.2725 72.2448 15.9936C71.8941 15.7227 71.5914 15.396 71.3443 15.0215C71.0974 14.647 70.9061 14.2326 70.7866 13.8024L70.7627 13.7307H80.0457L80.0533 12.0733C80.0533 11.3482 79.91 10.647 79.631 9.99365C79.3603 9.35622 78.9777 8.78247 78.4835 8.2964C77.9975 7.8024 77.4237 7.41993 76.7862 7.14902ZM78.0298 11.8183H70.7644L70.7786 11.7546C70.8822 11.3243 71.0575 10.91 71.2966 10.5354C71.5356 10.1689 71.8224 9.84222 72.165 9.57132C72.5077 9.30042 72.8902 9.08525 73.3045 8.9339C73.7348 8.78247 74.181 8.70282 74.6431 8.70282C75.4878 8.70282 76.3003 9.0215 76.922 9.5873C77.5438 10.153 77.9337 10.9259 78.0215 11.7546L78.0298 11.8183ZM47.8785 7.05337H45.4721L42.253 11.2287L39.0418 7.05337H36.6354L41.0259 12.7426L36.6354 18.4398H39.0418L42.253 14.2645L45.4721 18.4398H47.8785L43.4881 12.7426L47.8785 7.05337ZM87.5045 12.1211C87.9665 12.2725 88.3648 12.4797 88.7075 12.7426C89.0502 13.0056 89.321 13.3323 89.504 13.7227C89.7035 14.1131 89.7995 14.5912 89.7995 15.1649C89.7995 15.8183 89.672 16.3761 89.4088 16.8303C89.1455 17.2924 88.7952 17.6589 88.3647 17.9458C87.9268 18.2247 87.4408 18.4398 86.891 18.5674C86.3652 18.6868 85.8388 18.7585 85.2815 18.7666C83.4808 18.7666 81.863 17.9617 80.7793 16.7028L82.3167 15.5076C82.9782 16.4159 84.062 17.0055 85.2973 17.0055C85.568 17.0055 85.8387 16.9737 86.1178 16.9099C86.4207 16.8462 86.6915 16.7346 86.9382 16.5912C87.1858 16.4478 87.3845 16.2645 87.5285 16.0414C87.68 15.8183 87.7513 15.5554 87.7513 15.2446C87.7513 14.9338 87.68 14.6868 87.5443 14.4876C87.4085 14.2885 87.2255 14.1211 86.9945 13.9857C86.771 13.8422 86.5085 13.7307 86.2138 13.6509C85.919 13.5633 85.616 13.4916 85.3055 13.4279C84.7632 13.3163 84.2458 13.1808 83.759 13.0374C83.273 12.894 82.8433 12.7028 82.4765 12.4637C82.1097 12.2326 81.815 11.9219 81.5923 11.5474C81.3688 11.1729 81.257 10.6948 81.257 10.1052C81.257 9.55535 81.377 9.06132 81.6237 8.639C81.8713 8.21675 82.1975 7.86612 82.604 7.58724C83.0105 7.30835 83.4643 7.09321 83.9743 6.94979C84.4843 6.79839 85.0025 6.72668 85.568 6.72668C87.1858 6.72668 88.6123 7.52349 89.4808 8.75855L87.9665 9.77847C87.4325 9.0215 86.5565 8.51157 85.568 8.4797H85.4165C85.154 8.4797 84.8908 8.51157 84.62 8.57525C84.3493 8.639 84.11 8.74265 83.8948 8.87007C83.6795 8.99757 83.504 9.1649 83.369 9.37212C83.2332 9.57927 83.162 9.81035 83.162 10.0733C83.162 10.3123 83.2415 10.5275 83.393 10.6948C83.5445 10.8701 83.759 11.0215 84.0305 11.149C84.3012 11.2764 84.6117 11.396 84.9627 11.4916C85.313 11.5952 85.6797 11.6749 86.054 11.7386C86.564 11.8422 87.05 11.9697 87.5045 12.1211ZM99.3763 13.7227C99.1775 13.3323 98.9142 13.0056 98.564 12.7426C98.2213 12.4797 97.823 12.2725 97.361 12.1211C96.9065 11.9697 96.4205 11.8422 95.9105 11.7386C95.5362 11.6749 95.1695 11.5952 94.8185 11.4916C94.4683 11.396 94.1578 11.2764 93.8862 11.149C93.6155 11.0215 93.4003 10.8701 93.2487 10.6948C93.098 10.5195 93.0178 10.3123 93.0178 10.0733C93.0178 9.81035 93.0898 9.57927 93.2255 9.37212C93.3605 9.1649 93.536 8.99757 93.7513 8.87007C93.9665 8.74265 94.205 8.639 94.4765 8.57525C94.7473 8.51157 95.0098 8.4797 95.273 8.4797H95.4245C96.4123 8.51157 97.289 9.0215 97.823 9.77847V9.77052L99.3365 8.75855L99.329 8.7506H99.3365C98.468 7.52349 97.0423 6.72668 95.4245 6.72668H95.4005C94.859 6.72668 94.3408 6.79839 93.8307 6.94979C93.3208 7.09321 92.8662 7.30836 92.4605 7.58724C92.054 7.86612 91.727 8.21675 91.4802 8.639C91.2335 9.06132 91.1135 9.55535 91.1135 10.1052C91.1135 10.6948 91.2253 11.1729 91.448 11.5474C91.6715 11.9219 91.9662 12.2326 92.333 12.4637C92.699 12.7028 93.1295 12.894 93.6155 13.0374C94.1097 13.1808 94.6198 13.3163 95.1612 13.4279C95.4725 13.4916 95.7747 13.5633 96.0695 13.6509C96.3643 13.7307 96.6275 13.8422 96.851 13.9776C97.082 14.1131 97.265 14.2804 97.4008 14.4797C97.5358 14.6789 97.6078 14.9259 97.6078 15.2367C97.6078 15.5474 97.5358 15.8103 97.3842 16.0335C97.241 16.2565 97.0423 16.4398 96.7948 16.5832C96.548 16.7267 96.2773 16.8382 95.9743 16.902C95.6953 16.9657 95.4245 16.9976 95.1537 16.9976H95.1373C93.926 16.9976 92.843 16.4079 92.1815 15.4996L90.6432 16.6948C91.727 17.9538 93.3447 18.7585 95.1455 18.7585V18.7506C95.7035 18.7426 96.2292 18.6789 96.755 18.5593C97.3047 18.4318 97.7907 18.2167 98.2295 17.9378C98.6592 17.651 99.0103 17.2845 99.2728 16.8223C99.536 16.3681 99.6635 15.8103 99.6635 15.1569C99.6718 14.5992 99.5758 14.1131 99.3763 13.7227ZM62.3083 7.0219H64.3401V8.20917C65.4159 7.26892 66.8103 6.69522 68.3322 6.69522V8.72705C66.1329 8.72705 64.3401 10.5199 64.3401 12.7271V18.4402H62.3083V12.7192V12.4562V7.0219ZM22.8588 7.11709H20.8269V18.4398H22.8588V7.11709Z" fill="#CC290A"/>
</svg>
