<svg width="23" height="27" viewBox="0 0 23 27" fill="none" xmlns="http://www.w3.org/2000/svg">
<g clip-path="url(#clip0_1803_1081)">
<path d="M14.2763 16.1261C14.2763 16.1261 14.4577 15.9448 14.8204 15.5821C15.1831 15.2193 15.3645 14.5253 15.3645 13.5C15.3645 12.4747 15.0017 11.5994 14.2763 10.8739C13.5509 10.1485 12.6755 9.78574 11.6502 9.78574C10.6249 9.78574 9.74951 10.1485 9.02407 10.8739C8.29862 11.5994 7.9359 12.4747 7.9359 13.5C7.9359 14.5253 8.29862 15.4007 9.02407 16.1261C9.74951 16.8516 10.6249 17.2143 11.6502 17.2143C12.6755 17.2143 13.5509 16.8516 14.2763 16.1261ZM15.6982 9.45204C15.6982 9.45204 15.9763 9.73012 16.5324 10.2863C17.0886 10.8425 17.3667 11.9137 17.3667 13.5C17.3667 15.0863 16.8105 16.4357 15.6982 17.548C14.5858 18.6604 13.2365 19.2165 11.6502 19.2165C10.0639 19.2165 8.71454 18.6604 7.60219 17.548C6.48984 16.4357 5.93366 15.0863 5.93366 13.5C5.93366 11.9137 6.48984 10.5644 7.60219 9.45204C8.71454 8.33968 10.0639 7.78351 11.6502 7.78351C13.2365 7.78351 14.5858 8.33968 15.6982 9.45204ZM18.5419 6.60829C18.5419 6.60829 18.6072 6.67358 18.7378 6.80416C18.8684 6.93474 18.9337 7.18381 18.9337 7.55137C18.9337 7.91893 18.8031 8.23329 18.5419 8.49445C18.2808 8.75561 17.9664 8.88619 17.5988 8.88619C17.2313 8.88619 16.9169 8.75561 16.6558 8.49445C16.3946 8.23329 16.264 7.91893 16.264 7.55137C16.264 7.18381 16.3946 6.86945 16.6558 6.60829C16.9169 6.34712 17.2313 6.21655 17.5988 6.21655C17.9664 6.21655 18.2808 6.34712 18.5419 6.60829ZM12.7601 4.35215C12.7601 4.35215 12.5921 4.35336 12.2559 4.35577C11.9198 4.35819 11.7179 4.3594 11.6502 4.3594C11.5825 4.3594 11.2125 4.35698 10.5402 4.35215C9.868 4.34731 9.35777 4.34731 9.00956 4.35215C8.66134 4.35698 8.19464 4.37149 7.60944 4.39567C7.02425 4.41986 6.52611 4.46822 6.11503 4.54076C5.70394 4.61331 5.35814 4.70278 5.07764 4.80918C4.59401 5.00263 4.16841 5.28314 3.80085 5.6507C3.43329 6.01826 3.15279 6.44385 2.95933 6.92748C2.85293 7.20799 2.76346 7.55378 2.69092 7.96487C2.61837 8.37596 2.57001 8.8741 2.54583 9.45929C2.52165 10.0445 2.50714 10.5112 2.5023 10.8594C2.49747 11.2076 2.49747 11.7178 2.5023 12.3901C2.50714 13.0623 2.50956 13.4323 2.50956 13.5C2.50956 13.5677 2.50714 13.9377 2.5023 14.61C2.49747 15.2822 2.49747 15.7924 2.5023 16.1407C2.50714 16.4889 2.52165 16.9556 2.54583 17.5408C2.57001 18.126 2.61837 18.6241 2.69092 19.0352C2.76346 19.4463 2.85293 19.7921 2.95933 20.0726C3.15279 20.5562 3.43329 20.9818 3.80085 21.3494C4.16841 21.7169 4.59401 21.9974 5.07764 22.1909C5.35814 22.2973 5.70394 22.3867 6.11503 22.4593C6.52611 22.5318 7.02425 22.5802 7.60944 22.6044C8.19464 22.6286 8.66134 22.6431 9.00956 22.6479C9.35777 22.6527 9.868 22.6527 10.5402 22.6479C11.2125 22.6431 11.5825 22.6407 11.6502 22.6407C11.7179 22.6407 12.0879 22.6431 12.7601 22.6479C13.4324 22.6527 13.9426 22.6527 14.2908 22.6479C14.639 22.6431 15.1057 22.6286 15.6909 22.6044C16.2761 22.5802 16.7743 22.5318 17.1853 22.4593C17.5964 22.3867 17.9422 22.2973 18.2227 22.1909C18.7064 21.9974 19.132 21.7169 19.4995 21.3494C19.8671 20.9818 20.1476 20.5562 20.341 20.0726C20.4474 19.7921 20.5369 19.4463 20.6094 19.0352C20.682 18.6241 20.7304 18.126 20.7545 17.5408C20.7787 16.9556 20.7932 16.4889 20.7981 16.1407C20.8029 15.7924 20.8029 15.2822 20.7981 14.61C20.7932 13.9377 20.7908 13.5677 20.7908 13.5C20.7908 13.4323 20.7932 13.0623 20.7981 12.3901C20.8029 11.7178 20.8029 11.2076 20.7981 10.8594C20.7932 10.5112 20.7787 10.0445 20.7545 9.45929C20.7304 8.8741 20.682 8.37596 20.6094 7.96487C20.5369 7.55378 20.4474 7.20799 20.341 6.92748C20.1476 6.44385 19.8671 6.01826 19.4995 5.6507C19.132 5.28314 18.7064 5.00263 18.2227 4.80918C17.9422 4.70278 17.5964 4.61331 17.1853 4.54076C16.7743 4.46822 16.2761 4.41986 15.6909 4.39567C15.1057 4.37149 14.639 4.35698 14.2908 4.35215C13.9426 4.34731 13.4324 4.34731 12.7601 4.35215ZM22.7205 8.9007C22.7689 9.75189 22.793 11.285 22.793 13.5C22.793 15.7151 22.7689 17.2482 22.7205 18.0994C22.6238 20.1113 22.0241 21.6686 20.9214 22.7712C19.8187 23.8739 18.2614 24.4736 16.2495 24.5703C15.3983 24.6187 13.8652 24.6429 11.6502 24.6429C9.43515 24.6429 7.90204 24.6187 7.05085 24.5703C5.03895 24.4736 3.48165 23.8739 2.37898 22.7712C1.2763 21.6686 0.676595 20.1113 0.579869 18.0994C0.531506 17.2482 0.507324 15.7151 0.507324 13.5C0.507324 11.285 0.531506 9.75189 0.579869 8.9007C0.676595 6.88879 1.2763 5.3315 2.37898 4.22882C3.48165 3.12614 5.03895 2.52644 7.05085 2.42971C7.90204 2.38135 9.43515 2.35717 11.6502 2.35717C13.8652 2.35717 15.3983 2.38135 16.2495 2.42971C18.2614 2.52644 19.8187 3.12614 20.9214 4.22882C22.0241 5.3315 22.6238 6.88879 22.7205 8.9007Z" fill="#FFFF00"/>
</g>
<defs>
<clipPath id="clip0_1803_1081">
<rect width="22.3" height="26" fill="white" transform="matrix(1 0 0 -1 0.5 26.5)"/>
</clipPath>
</defs>
</svg>
