<svg width="29" height="27" viewBox="0 0 29 27" fill="none" xmlns="http://www.w3.org/2000/svg">
<g clip-path="url(#clip0_1803_1083)">
<path d="M28.6694 8.04467C28.8919 8.66371 28.1665 10.0856 26.4931 12.3103C26.261 12.6198 25.9466 13.0309 25.55 13.5435C25.1631 14.0369 24.8971 14.3851 24.752 14.5882C24.6069 14.7913 24.4594 15.0307 24.3095 15.3064C24.1596 15.5821 24.1015 15.7852 24.1354 15.9158C24.1692 16.0463 24.2321 16.2132 24.324 16.4163C24.4159 16.6194 24.5731 16.8274 24.7955 17.0402C25.018 17.253 25.2937 17.5093 25.6226 17.8092C25.6612 17.8285 25.6854 17.8479 25.6951 17.8672C27.0589 19.1343 27.9827 20.2031 28.4663 21.0737C28.4953 21.122 28.5268 21.1825 28.5606 21.255C28.5945 21.3276 28.6283 21.4558 28.6622 21.6395C28.696 21.8233 28.6936 21.9877 28.6549 22.1328C28.6162 22.2779 28.4953 22.4109 28.2922 22.5318C28.0891 22.6527 27.8037 22.7132 27.4362 22.7132L23.7219 22.7712C23.4897 22.8196 23.2189 22.7954 22.9094 22.6987C22.5999 22.602 22.3484 22.4956 22.1549 22.3795L21.8647 22.2054C21.5746 22.0023 21.236 21.6927 20.8491 21.2768C20.4622 20.8609 20.1309 20.4861 19.8553 20.1524C19.5796 19.8187 19.2846 19.5382 18.9702 19.3108C18.6559 19.0835 18.3826 19.0086 18.1505 19.086C18.1214 19.0956 18.0828 19.1126 18.0344 19.1367C17.986 19.1609 17.9038 19.2311 17.7877 19.3471C17.6717 19.4632 17.5677 19.6059 17.4758 19.7751C17.3839 19.9444 17.3017 20.1959 17.2291 20.5296C17.1566 20.8633 17.1252 21.2381 17.1348 21.654C17.1348 21.7991 17.1179 21.9321 17.0841 22.053C17.0502 22.1739 17.0139 22.2634 16.9752 22.3215L16.9172 22.394C16.7431 22.5778 16.4868 22.6842 16.1482 22.7132H14.4797C13.7929 22.7519 13.0868 22.6721 12.3614 22.4738C11.636 22.2755 11 22.0192 10.4535 21.7048C9.90697 21.3905 9.40883 21.0713 8.95905 20.7472C8.50928 20.4232 8.16832 20.1451 7.93617 19.913L7.57345 19.5648C7.47673 19.468 7.34373 19.3229 7.17446 19.1295C7.00519 18.936 6.65939 18.4959 6.13707 17.8092C5.61475 17.1224 5.1021 16.3921 4.59912 15.6183C4.09614 14.8445 3.5037 13.8241 2.82178 12.5569C2.13986 11.2898 1.50872 9.97435 0.928362 8.61051C0.870326 8.45575 0.841309 8.32517 0.841309 8.21877C0.841309 8.11237 0.855818 8.03499 0.884835 7.98663L0.942871 7.89958C1.08796 7.7158 1.36363 7.62391 1.76988 7.62391L5.74533 7.59489C5.8614 7.61424 5.97263 7.64567 6.07903 7.6892C6.18543 7.73273 6.26281 7.77383 6.31117 7.81252L6.38372 7.85605C6.53848 7.96245 6.65455 8.11721 6.73193 8.32034C6.92539 8.80397 7.14786 9.30452 7.39934 9.82201C7.65083 10.3395 7.84912 10.7337 7.99421 11.0045L8.22635 11.4252C8.50686 12.0056 8.77769 12.5086 9.03885 12.9342C9.30001 13.3598 9.53457 13.6911 9.74254 13.928C9.9505 14.165 10.1512 14.3512 10.3447 14.4866C10.5381 14.622 10.7025 14.6898 10.838 14.6898C10.9734 14.6898 11.104 14.6656 11.2297 14.6172C11.249 14.6075 11.2732 14.5834 11.3022 14.5447C11.3313 14.506 11.3893 14.3996 11.4764 14.2255C11.5634 14.0514 11.6287 13.8241 11.6722 13.5435C11.7158 13.263 11.7617 12.8713 11.8101 12.3683C11.8584 11.8654 11.8584 11.2608 11.8101 10.5547C11.7907 10.1678 11.7472 9.81476 11.6795 9.49556C11.6118 9.17636 11.5441 8.95389 11.4764 8.82815L11.3893 8.65404C11.1475 8.32517 10.7364 8.11721 10.156 8.03016C10.0303 8.01081 10.0545 7.89474 10.2286 7.68194C10.3833 7.49816 10.5671 7.35308 10.7799 7.24668C11.2926 6.99519 12.4485 6.87912 14.2476 6.89846C15.0407 6.90813 15.6936 6.97101 16.2063 7.08708C16.3997 7.13544 16.5617 7.20073 16.6923 7.28295C16.8229 7.36517 16.922 7.48124 16.9897 7.63116C17.0575 7.78109 17.1082 7.93585 17.1421 8.09545C17.1759 8.25505 17.1929 8.4751 17.1929 8.7556C17.1929 9.03611 17.188 9.30211 17.1784 9.55359C17.1687 9.80508 17.1566 10.146 17.1421 10.5765C17.1276 11.0069 17.1203 11.4059 17.1203 11.7735C17.1203 11.8799 17.1155 12.083 17.1058 12.3828C17.0961 12.6827 17.0937 12.9148 17.0986 13.0793C17.1034 13.2437 17.1203 13.4396 17.1493 13.6669C17.1784 13.8942 17.234 14.0828 17.3162 14.2327C17.3984 14.3826 17.5072 14.5011 17.6426 14.5882C17.72 14.6075 17.8022 14.6269 17.8893 14.6462C17.9764 14.6656 18.1021 14.6124 18.2665 14.4866C18.431 14.3609 18.6147 14.194 18.8179 13.9861C19.021 13.7781 19.2725 13.4541 19.5723 13.014C19.8722 12.5739 20.2011 12.054 20.5589 11.4543C21.1393 10.4483 21.6568 9.36014 22.1114 8.18976C22.1501 8.09303 22.1985 8.0084 22.2565 7.93585C22.3145 7.86331 22.3677 7.81252 22.4161 7.78351L22.4741 7.73998C22.4935 7.73031 22.5176 7.71822 22.5467 7.70371C22.5757 7.6892 22.6386 7.67469 22.7353 7.66018C22.832 7.64567 22.9287 7.64325 23.0255 7.65293L27.204 7.62391C27.5813 7.57555 27.8908 7.58764 28.1326 7.66018C28.3744 7.73273 28.5243 7.81252 28.5824 7.89958L28.6694 8.04467Z" fill="#FFFF00"/>
</g>
<defs>
<clipPath id="clip0_1803_1083">
<rect width="27.86" height="26" fill="white" transform="matrix(1 0 0 -1 0.839844 26.5)"/>
</clipPath>
</defs>
</svg>
