<svg width="27" height="27" viewBox="0 0 27 27" fill="none" xmlns="http://www.w3.org/2000/svg">
<g clip-path="url(#clip0_1803_1085)">
<path d="M11.0759 16.8661L18.0982 13.2388L11.0759 9.56808V16.8661ZM13.76 4.35938C15.385 4.35938 16.9544 4.38114 18.4682 4.42467C19.9819 4.46819 21.0918 4.51414 21.7979 4.5625L22.8571 4.62054C22.8668 4.62054 22.949 4.62779 23.1038 4.6423C23.2585 4.65681 23.3697 4.67132 23.4375 4.68583C23.5052 4.70033 23.6188 4.7221 23.7784 4.75112C23.938 4.78013 24.0759 4.81882 24.1919 4.86719C24.308 4.91555 24.4434 4.97842 24.5982 5.0558C24.7529 5.13318 24.9029 5.22749 25.0479 5.33873C25.193 5.44996 25.3333 5.57812 25.4687 5.72322C25.5267 5.78125 25.6017 5.87072 25.6936 5.99163C25.7855 6.11254 25.9257 6.39546 26.1144 6.8404C26.303 7.28534 26.4311 7.77381 26.4988 8.3058C26.5762 8.92485 26.6367 9.58501 26.6802 10.2863C26.7237 10.9875 26.7503 11.5365 26.76 11.933V12.5134V14.4866C26.7697 15.8891 26.6826 17.2917 26.4988 18.6942C26.4311 19.2262 26.3102 19.7074 26.1361 20.1378C25.962 20.5683 25.8072 20.8657 25.6718 21.0301L25.4687 21.2768C25.3333 21.4219 25.193 21.55 25.0479 21.6613C24.9029 21.7725 24.7529 21.8644 24.5982 21.9369C24.4434 22.0095 24.308 22.0699 24.1919 22.1183C24.0759 22.1667 23.938 22.2054 23.7784 22.2344C23.6188 22.2634 23.5027 22.2852 23.4302 22.2997C23.3577 22.3142 23.2464 22.3287 23.0965 22.3432C22.9466 22.3577 22.8668 22.365 22.8571 22.365C20.4293 22.5487 17.3969 22.6406 13.76 22.6406C11.7578 22.6213 10.0191 22.5898 8.54404 22.5463C7.06897 22.5028 6.09929 22.4665 5.635 22.4375L4.92407 22.3795L4.40174 22.3214C4.05353 22.2731 3.78995 22.2247 3.61101 22.1763C3.43206 22.128 3.18541 22.0264 2.87105 21.8717C2.55669 21.7169 2.28344 21.5186 2.0513 21.2768C1.99326 21.2188 1.9183 21.1293 1.82641 21.0084C1.73452 20.8875 1.59427 20.6045 1.40565 20.1596C1.21703 19.7147 1.08887 19.2262 1.02116 18.6942C0.943783 18.0751 0.883329 17.415 0.839802 16.7137C0.796275 16.0125 0.769675 15.4635 0.760003 15.067V14.4866V12.5134C0.75033 11.1109 0.837384 9.70833 1.02116 8.3058C1.08887 7.77381 1.20978 7.2926 1.38389 6.86217C1.55799 6.43173 1.71276 6.1343 1.84817 5.96987L2.0513 5.72322C2.18671 5.57812 2.32697 5.44996 2.47206 5.33873C2.61715 5.22749 2.76707 5.13318 2.92183 5.0558C3.0766 4.97842 3.21201 4.91555 3.32808 4.86719C3.44415 4.81882 3.58199 4.78013 3.74159 4.75112C3.90119 4.7221 4.01484 4.70033 4.08255 4.68583C4.15026 4.67132 4.26149 4.65681 4.41625 4.6423C4.57101 4.62779 4.65323 4.62054 4.6629 4.62054C7.09073 4.44643 10.1231 4.35938 13.76 4.35938Z" fill="#FFFF00"/>
</g>
<defs>
<clipPath id="clip0_1803_1085">
<rect width="26.02" height="26" fill="white" transform="matrix(1 0 0 -1 0.75 26.5)"/>
</clipPath>
</defs>
</svg>
